<?xml version="1.0" encoding="iso-8859-1"?>
<!-- Generator: Adobe Illustrator 19.0.0, SVG Export Plug-In . SVG Version: 6.00 Build 0)  -->
<svg xmlns="http://www.w3.org/2000/svg" xmlns:xlink="http://www.w3.org/1999/xlink" version="1.1" id="Layer_1" x="0px" y="0px" viewBox="0 0 512.001 512.001" style="enable-background:new 0 0 512.001 512.001;" xml:space="preserve">
<path style="fill:#338727;" d="M300.208,38.106c-2.965-2.891-7.709-2.831-10.599,0.135l-26.114,26.783V7.495  C263.495,3.355,260.139,0,256,0c-4.139,0-7.495,3.355-7.495,7.495v159.376L219.45,118.56c-2.133-3.547-6.738-4.693-10.286-2.56  c-3.548,2.134-4.694,6.738-2.56,10.286l41.901,69.672v59.207c0,4.14,3.356,7.495,7.495,7.495c4.139,0,7.495-3.355,7.495-7.495  V86.496l36.847-37.791C303.232,45.741,303.172,40.995,300.208,38.106z"/>
<path style="fill:#975D50;" d="M412.252,489.631c0.003,0.549-0.004,1.098-0.02,1.649c-0.008,0.008,0,0.017,0,0.017  c-0.05,1.884-0.225,3.784-0.517,5.692c-0.217,1.434-0.5,2.875-0.85,4.317c-0.183,0.742-0.367,1.442-0.55,2.101  c-0.092,0.334-0.184,0.651-0.275,0.958c-0.45,1.559-0.891,2.85-1.242,3.843c-0.067,0.175-0.134,0.342-0.217,0.5  c-0.167,0.325-0.375,0.617-0.617,0.883c-0.234,0.259-0.509,0.492-0.8,0.692c-0.45,0.292-0.958,0.5-1.508,0.601  c-1.642,0.309-4.101,0.701-7.135,0.95c-1.35,0.109-2.7,0.167-4.025,0.167c-0.417,0-0.825-0.008-1.242-0.017  c-0.117,0-0.225-0.008-0.342-0.008c-0.275-0.008-0.542-0.025-0.808-0.033c-0.2-0.008-0.392-0.025-0.584-0.033  c-1.292-0.083-2.559-0.217-3.818-0.392c-0.85-0.125-1.692-0.267-2.525-0.442c-0.4-0.075-0.8-0.159-1.192-0.25  c-0.05-0.008-0.1-0.025-0.159-0.042c-0.283-0.058-0.567-0.125-0.85-0.2c-1.851-0.467-3.651-1.033-5.41-1.709  c-0.3-0.117-0.601-0.234-0.891-0.359c-0.858-0.342-1.7-0.717-2.533-1.117c-12.377-5.926-21.763-17.037-25.505-30.256H156.722  c-5.943,20.979-26.089,36.658-49.894,34.69c-3.026-0.25-5.485-0.642-7.126-0.95c-1.459-0.275-2.642-1.292-3.142-2.684  c-0.567-1.575-1.342-3.943-2.067-6.893c-4.618-18.837,2.634-37.125,16.12-48.244c-8.36-33.14-21.754-95.378-21.754-153.873l0,0  c0-1.068,0.865-1.934,1.934-1.934h323.775c1.068,0,1.934,0.865,1.934,1.934l0,0c0,31.99-4.009,65.097-9.01,93.953  c-0.284,1.65-0.567,3.276-0.866,4.901c0,0.008,0,0.008,0,0.008c-0.292,1.617-0.584,3.217-0.883,4.809  c-0.292,1.592-0.592,3.167-0.891,4.718c-0.751,3.893-1.509,7.676-2.276,11.344c-0.3,1.467-0.609,2.917-0.908,4.342  c-2.433,11.403-4.834,21.512-6.927,29.798c3.685,3.042,6.91,6.618,9.552,10.594c0.717,1.083,1.4,2.201,2.026,3.342  c0.208,0.375,0.417,0.759,0.617,1.15c0.4,0.776,0.784,1.559,1.142,2.35c0.717,1.592,1.35,3.226,1.884,4.893  c0.925,2.834,1.584,5.768,1.942,8.776c0.033,0.192,0.05,0.384,0.067,0.575C412.148,486.352,412.244,487.983,412.252,489.631z"/>
<path style="fill:#7F443B;" d="M411.966,484.744c0.242,2.151,0.334,4.334,0.267,6.535c-0.008,0.008,0,0.017,0,0.017  c-0.058,1.884-0.225,3.784-0.517,5.692c-0.217,1.434-0.5,2.875-0.858,4.317c-0.175,0.742-0.359,1.442-0.542,2.101  c-0.092,0.334-0.184,0.651-0.275,0.958c-0.45,1.559-0.891,2.85-1.242,3.843c-0.067,0.175-0.134,0.342-0.217,0.5  c-0.167,0.325-0.375,0.626-0.617,0.883c-0.242,0.275-0.509,0.5-0.8,0.692c-0.45,0.292-0.958,0.5-1.508,0.601  c-1.642,0.309-4.101,0.701-7.135,0.95c-1.35,0.109-2.7,0.167-4.025,0.167c-0.417,0-0.825-0.008-1.242-0.017  c-0.117,0-0.225-0.008-0.342-0.008c-0.275-0.008-0.542-0.025-0.808-0.033c-0.2-0.008-0.392-0.025-0.584-0.033  c-1.292-0.083-2.559-0.217-3.818-0.392c-0.85-0.125-1.692-0.267-2.525-0.442c-0.4-0.075-0.8-0.159-1.192-0.25  c-0.05-0.008-0.1-0.025-0.159-0.042c-0.283-0.058-0.567-0.125-0.85-0.2c-1.851-0.467-3.651-1.033-5.41-1.709  c-0.3-0.117-0.601-0.234-0.891-0.359c-0.858-0.342-1.7-0.717-2.533-1.117c0.534-1.534,1.175-3.609,1.784-6.093  c4.401-17.954-1.976-35.408-14.261-46.635c-1.125-1.025-1.609-2.583-1.242-4.067c8.385-33.699,21.138-94.335,21.138-151.414  c0-0.642,0-1.292-0.017-1.934h33.015c1.068,0,1.934,0.865,1.934,1.934l0,0c0,31.99-4.009,65.097-9.002,93.953  c-0.292,1.65-0.575,3.284-0.866,4.901c0,0.008,0,0.008,0,0.008c-0.292,1.617-0.592,3.226-0.883,4.809  c-0.3,1.592-0.592,3.167-0.891,4.718c-0.751,3.893-1.509,7.676-2.276,11.344c-0.3,1.467-0.609,2.909-0.908,4.342  c-2.433,11.403-4.834,21.512-6.927,29.798c3.685,3.042,6.91,6.618,9.552,10.594c0.717,1.083,1.392,2.201,2.026,3.342  c0.208,0.375,0.417,0.759,0.617,1.15c0.4,0.767,0.784,1.55,1.142,2.35c0.717,1.592,1.35,3.226,1.884,4.893  c0.917,2.834,1.575,5.768,1.942,8.776C411.933,484.361,411.95,484.553,411.966,484.744z"/>
<path style="fill:#FD7555;" d="M428.744,297.256H83.257c-2.302,0-4.167-1.866-4.167-4.167v-33.757c0-2.302,1.866-4.167,4.167-4.167  h345.487c2.302,0,4.167,1.866,4.167,4.167v33.757C432.911,295.391,431.046,297.256,428.744,297.256z"/>
<path style="fill:#EF431D;" d="M432.907,259.332v33.753c0,2.303-1.861,4.174-4.164,4.174h-50.398c2.303,0,4.164-1.871,4.164-4.174  v-33.753c0-2.303-1.861-4.164-4.164-4.164h50.398C431.047,255.169,432.907,257.03,432.907,259.332z"/>
<g>
	<circle style="fill:#7F443B;" cx="348.81" cy="330.551" r="8.58"/>
	<circle style="fill:#7F443B;" cx="147.068" cy="370.786" r="8.58"/>
	<circle style="fill:#7F443B;" cx="171.053" cy="394.771" r="8.58"/>
</g>
<g>
</g>
<g>
</g>
<g>
</g>
<g>
</g>
<g>
</g>
<g>
</g>
<g>
</g>
<g>
</g>
<g>
</g>
<g>
</g>
<g>
</g>
<g>
</g>
<g>
</g>
<g>
</g>
<g>
</g>
</svg>
