<?xml version="1.0" encoding="utf-8"?>
<!-- Generated by IcoMoon.io -->
<!DOCTYPE svg PUBLIC "-//W3C//DTD SVG 1.1//EN" "http://www.w3.org/Graphics/SVG/1.1/DTD/svg11.dtd">
<svg version="1.1" xmlns="http://www.w3.org/2000/svg" xmlns:xlink="http://www.w3.org/1999/xlink" width="512" height="512" viewBox="0 0 512 512">
<g>
</g>
	<path d="M256 512c-141.375 0-256-114.625-256-256 0-141.391 114.625-256 256-256s256 114.609 256 256c0 141.375-114.625 256-256 256zM64 256c0 41.312 13.312 79.312 35.531 110.656l267.125-267.14c-31.312-22.188-69.344-35.516-110.656-35.516-106.031 0-192 85.969-192 192zM412.469 145.344l-267.125 267.156c31.312 22.188 69.344 35.5 110.656 35.5 106.031 0 192-85.969 192-192 0-41.312-13.312-79.328-35.531-110.656z" fill="#000000" />
</svg>
