<?xml version="1.0" encoding="iso-8859-1"?>
<!-- Generator: Adobe Illustrator 19.0.0, SVG Export Plug-In . SVG Version: 6.00 Build 0)  -->
<svg xmlns="http://www.w3.org/2000/svg" xmlns:xlink="http://www.w3.org/1999/xlink" version="1.1" id="Layer_1" x="0px" y="0px" viewBox="0 0 512 512" style="enable-background:new 0 0 512 512;" xml:space="preserve">
<g>
	<path style="fill:#B9E5FA;" d="M144.595,512c-0.731,0-1.474-0.107-2.208-0.334c-3.959-1.218-6.181-5.415-4.962-9.374l7.354-23.895   c1.218-3.959,5.417-6.183,9.374-4.962c3.959,1.218,6.181,5.415,4.962,9.374l-7.354,23.895C150.769,509.928,147.801,512,144.595,512   z M159.303,464.212c-0.731,0-1.474-0.107-2.208-0.334c-3.959-1.219-6.181-5.415-4.962-9.374l7.354-23.894   c1.219-3.958,5.417-6.181,9.374-4.962c3.959,1.218,6.181,5.415,4.962,9.374l-7.354,23.894   C165.477,462.14,162.509,464.212,159.303,464.212z M174.012,416.424c-0.731,0-1.474-0.107-2.208-0.334   c-3.959-1.219-6.181-5.415-4.962-9.374l7.354-23.894c1.219-3.959,5.416-6.184,9.374-4.962c3.959,1.219,6.181,5.415,4.962,9.374   l-7.354,23.894C180.185,414.352,177.217,416.424,174.012,416.424z"/>
	<path style="fill:#B9E5FA;" d="M175.695,512c-0.731,0-1.474-0.107-2.208-0.334c-3.959-1.218-6.181-5.415-4.962-9.374l7.354-23.895   c1.218-3.959,5.415-6.183,9.374-4.962c3.959,1.218,6.181,5.415,4.962,9.374l-7.354,23.895C181.868,509.928,178.9,512,175.695,512z    M190.403,464.212c-0.731,0-1.474-0.107-2.208-0.334c-3.959-1.219-6.181-5.415-4.962-9.374l7.354-23.894   c1.218-3.958,5.417-6.181,9.374-4.962c3.959,1.218,6.181,5.415,4.962,9.374l-7.354,23.894   C196.576,462.14,193.608,464.212,190.403,464.212z M205.111,416.424c-0.731,0-1.474-0.107-2.208-0.334   c-3.959-1.219-6.181-5.415-4.962-9.374l7.354-23.894c1.219-3.959,5.416-6.184,9.374-4.962c3.959,1.219,6.181,5.415,4.962,9.374   l-7.354,23.894C211.285,414.352,208.317,416.424,205.111,416.424z"/>
	<path style="fill:#B9E5FA;" d="M206.794,512c-0.731,0-1.474-0.107-2.208-0.334c-3.959-1.219-6.181-5.415-4.962-9.374l7.354-23.895   c1.219-3.959,5.416-6.183,9.374-4.962c3.959,1.219,6.181,5.415,4.962,9.374l-7.354,23.895C212.967,509.928,210,512,206.794,512z    M221.502,464.212c-0.731,0-1.474-0.107-2.208-0.334c-3.959-1.219-6.181-5.415-4.962-9.374l7.354-23.894   c1.218-3.958,5.416-6.181,9.374-4.962c3.959,1.218,6.181,5.415,4.962,9.374l-7.354,23.894   C227.676,462.14,224.708,464.212,221.502,464.212z M236.21,416.424c-0.731,0-1.474-0.107-2.208-0.334   c-3.959-1.219-6.181-5.415-4.962-9.374l7.354-23.894c1.218-3.959,5.417-6.184,9.374-4.962c3.959,1.219,6.181,5.415,4.962,9.374   l-7.354,23.894C242.384,414.352,239.416,416.424,236.21,416.424z"/>
	<path style="fill:#B9E5FA;" d="M237.894,512c-0.731,0-1.474-0.107-2.208-0.334c-3.959-1.219-6.181-5.415-4.962-9.374l7.354-23.895   c1.218-3.959,5.417-6.183,9.374-4.962c3.959,1.219,6.181,5.415,4.962,9.374l-7.354,23.895C244.067,509.928,241.099,512,237.894,512   z M252.602,464.212c-0.731,0-1.474-0.107-2.208-0.334c-3.959-1.219-6.181-5.415-4.962-9.374l7.354-23.894   c1.219-3.958,5.416-6.181,9.374-4.962c3.959,1.218,6.181,5.415,4.962,9.374l-7.354,23.894   C258.775,462.14,255.808,464.212,252.602,464.212z M267.31,416.424c-0.731,0-1.474-0.107-2.208-0.334   c-3.959-1.219-6.181-5.415-4.962-9.374l7.354-23.894c1.218-3.959,5.416-6.184,9.374-4.962c3.959,1.219,6.181,5.415,4.962,9.374   l-7.354,23.894C273.483,414.352,270.516,416.424,267.31,416.424z"/>
	<path style="fill:#B9E5FA;" d="M268.993,512c-0.731,0-1.474-0.107-2.208-0.334c-3.959-1.219-6.181-5.415-4.962-9.374l7.354-23.895   c1.218-3.959,5.417-6.183,9.374-4.962c3.959,1.219,6.181,5.415,4.962,9.374l-7.354,23.895C275.167,509.928,272.199,512,268.993,512   z M283.702,464.212c-0.731,0-1.474-0.107-2.208-0.334c-3.959-1.219-6.181-5.415-4.962-9.374l7.354-23.894   c1.218-3.958,5.417-6.181,9.374-4.962c3.959,1.218,6.181,5.415,4.962,9.374l-7.354,23.894   C289.875,462.14,286.907,464.212,283.702,464.212z M298.41,416.424c-0.731,0-1.474-0.107-2.208-0.334   c-3.959-1.219-6.181-5.415-4.962-9.374l7.354-23.894c1.219-3.959,5.417-6.184,9.374-4.962c3.959,1.219,6.181,5.415,4.962,9.374   l-7.354,23.894C304.583,414.352,301.615,416.424,298.41,416.424z"/>
	<path style="fill:#B9E5FA;" d="M300.093,512c-0.731,0-1.474-0.107-2.208-0.334c-3.959-1.219-6.181-5.415-4.962-9.374l7.354-23.895   c1.219-3.959,5.416-6.183,9.374-4.962c3.959,1.219,6.181,5.415,4.962,9.374l-7.354,23.895C306.266,509.928,303.298,512,300.093,512   z M314.801,464.212c-0.731,0-1.474-0.107-2.208-0.334c-3.959-1.219-6.181-5.415-4.962-9.374l7.354-23.894   c1.218-3.958,5.417-6.181,9.374-4.962c3.959,1.218,6.181,5.415,4.962,9.374l-7.354,23.894   C320.975,462.14,318.007,464.212,314.801,464.212z M329.509,416.424c-0.731,0-1.474-0.107-2.208-0.334   c-3.959-1.219-6.181-5.415-4.962-9.374l7.354-23.894c1.218-3.959,5.417-6.184,9.374-4.962c3.959,1.219,6.181,5.415,4.962,9.374   l-7.354,23.894C335.683,414.352,332.715,416.424,329.509,416.424z"/>
	<path style="fill:#B9E5FA;" d="M331.192,512c-0.731,0-1.474-0.107-2.208-0.334c-3.959-1.219-6.181-5.415-4.962-9.374l7.354-23.895   c1.219-3.959,5.417-6.183,9.374-4.962c3.959,1.219,6.181,5.415,4.962,9.374l-7.354,23.895C337.366,509.928,334.398,512,331.192,512   z M345.901,464.212c-0.731,0-1.474-0.107-2.208-0.334c-3.959-1.219-6.181-5.415-4.962-9.374l7.354-23.894   c1.219-3.958,5.416-6.181,9.374-4.962c3.959,1.218,6.181,5.415,4.962,9.374l-7.354,23.894   C352.074,462.14,349.106,464.212,345.901,464.212z M360.609,416.424c-0.731,0-1.474-0.107-2.208-0.334   c-3.959-1.219-6.181-5.415-4.962-9.374l7.354-23.894c1.218-3.959,5.415-6.184,9.374-4.962c3.959,1.219,6.181,5.415,4.962,9.374   l-7.354,23.894C366.782,414.352,363.814,416.424,360.609,416.424z"/>
</g>
<path style="fill:#E2E2E2;" d="M511.928,196.491c-0.666-47.825-39.542-86.931-87.362-87.866  c-17.861-0.349-34.551,4.559-48.635,13.278c-2.707,1.676-6.249,0.139-6.79-2.999C357.492,51.373,298.639,0,227.781,0  C161.708,0,106.076,44.672,89.419,105.458c-0.508,1.853-2.17,3.156-4.09,3.239c-47.733,2.047-85.743,41.619-85.266,89.966  c0.484,49.069,41.189,88.255,90.26,88.255h39.617c-2.33,5.862-3.587,12.267-3.521,18.975c0.272,27.547,23.123,49.545,50.671,49.545  h186.638c27.88,0,50.435-22.795,50.046-50.764c-0.087-6.256-1.352-12.241-3.561-17.756h12.569  C472.444,286.918,512.622,246.313,511.928,196.491z"/>
<g>
	<path style="fill:#CCCCCC;" d="M413.765,304.131c0.409,16.649-7.317,31.517-19.484,40.905c1.44-4.665,2.212-9.617,2.212-14.754   c0-27.647-22.409-50.051-50.051-50.051c-9.67,0-18.699,2.742-26.35,7.491c-1.498,0.93-3.464,0.021-3.764-1.716   c-6.54-37.911-39.581-66.747-79.359-66.747c-21.938,0-41.829,8.774-56.352,23.011c12.517-28.219,40.78-47.904,73.639-47.904   c39.779,0,72.816,28.842,79.359,66.75c0.304,1.761,2.293,2.624,3.812,1.683c7.901-4.891,17.267-7.645,27.289-7.452   C391.359,255.861,413.112,277.491,413.765,304.131z"/>
	<path style="fill:#CCCCCC;" d="M511.914,195.525c0.728,29.657-13.035,56.142-34.707,72.864c2.565-8.311,3.941-17.131,3.941-26.281   c0-49.247-39.918-89.156-89.156-89.156c-17.226,0-33.309,4.885-46.938,13.344c-2.668,1.656-6.171,0.037-6.705-3.057   C326.7,95.707,267.843,44.341,196.987,44.341c-39.078,0-74.51,15.629-100.38,40.99C118.903,35.066,169.249,0,227.781,0   c70.858,0,129.708,51.377,141.362,118.902c0.542,3.137,4.084,4.674,6.791,2.998c14.074-8.713,30.757-13.617,48.609-13.274   C472.002,109.541,510.749,148.071,511.914,195.525z"/>
	<circle style="fill:#CCCCCC;" cx="174.05" cy="300.2" r="8.585"/>
	<circle style="fill:#CCCCCC;" cx="201.91" cy="325.16" r="8.585"/>
	<circle style="fill:#CCCCCC;" cx="291.45" cy="269.26" r="8.585"/>
</g>
<g>
</g>
<g>
</g>
<g>
</g>
<g>
</g>
<g>
</g>
<g>
</g>
<g>
</g>
<g>
</g>
<g>
</g>
<g>
</g>
<g>
</g>
<g>
</g>
<g>
</g>
<g>
</g>
<g>
</g>
</svg>
