<?xml version="1.0" encoding="iso-8859-1"?>
<!-- Generator: Adobe Illustrator 19.0.0, SVG Export Plug-In . SVG Version: 6.00 Build 0)  -->
<svg xmlns="http://www.w3.org/2000/svg" xmlns:xlink="http://www.w3.org/1999/xlink" version="1.1" id="Layer_1" x="0px" y="0px" viewBox="0 0 512 512" style="enable-background:new 0 0 512 512;" xml:space="preserve">
<path style="fill:#B9E5FA;" d="M344.89,247.114c14.6-34.015,46.427-74.303,64.873-96.14c7.324-8.671,20.647-8.671,27.971,0  c18.446,21.837,50.273,62.125,64.873,96.14c7.968,15.896,11.423,34.446,8.183,54.088c-6.417,38.902-38.739,69.248-77.972,73.161  c-52.812,5.268-97.321-36.067-97.321-87.797C335.498,272.367,338.933,258.998,344.89,247.114z"/>
<path style="fill:#87D5F6;" d="M336.382,299.101c6.116,42.815,42.895,75.716,87.349,75.716c48.772,0,88.269-39.497,88.269-88.269  c0-14.191-3.438-27.544-9.394-39.417c-11.233-26.225-32.741-56.128-50.451-78.515c2.638,4.918,5.037,9.795,7.076,14.552  c5.957,11.873,9.394,25.225,9.394,39.417c0,48.772-39.497,88.269-88.229,88.269C364.366,310.854,349.334,306.576,336.382,299.101z"/>
<path style="fill:#B9E5FA;" d="M9.392,247.114c14.6-34.015,46.427-74.303,64.873-96.14c7.324-8.671,20.647-8.671,27.971,0  c18.446,21.837,50.273,62.125,64.873,96.14c7.968,15.896,11.423,34.446,8.183,54.088c-6.417,38.902-38.739,69.248-77.972,73.161  C44.51,379.631,0,338.296,0,286.566C0,272.367,3.435,258.998,9.392,247.114z"/>
<path style="fill:#87D5F6;" d="M0.884,299.101C7,341.916,43.779,374.817,88.232,374.817c48.772,0,88.269-39.497,88.269-88.269  c0-14.191-3.438-27.544-9.394-39.417c-11.233-26.225-32.741-56.128-50.451-78.515c2.638,4.918,5.037,9.795,7.076,14.552  c5.957,11.873,9.394,25.225,9.394,39.417c0,48.772-39.497,88.269-88.229,88.269C28.867,310.854,13.836,306.576,0.884,299.101z"/>
<path style="fill:#B9E5FA;" d="M141.628,237.839c21.162-49.301,67.292-107.695,94.027-139.345c10.616-12.567,29.925-12.567,40.541,0  c26.736,31.65,72.865,90.044,94.027,139.345c11.549,23.039,16.557,49.925,11.861,78.395c-9.3,56.384-56.148,100.367-113.012,106.04  c-76.545,7.636-141.058-52.275-141.058-127.254C128.015,274.44,132.993,255.064,141.628,237.839z"/>
<g>
	<path style="fill:#87D5F6;" d="M129.296,313.189c8.865,62.056,62.172,109.743,126.604,109.743   c70.69,0,127.938-57.247,127.938-127.938c0-20.569-4.983-39.922-13.616-57.131c-16.281-38.011-47.455-81.352-73.123-113.8   c3.824,7.128,7.301,14.196,10.256,21.092c8.633,17.209,13.616,36.561,13.616,57.131c0,70.69-57.247,127.938-127.879,127.938   C169.855,330.223,148.069,324.023,129.296,313.189z"/>
	<circle style="fill:#87D5F6;" cx="284.28" cy="168.29" r="8.585"/>
	<circle style="fill:#87D5F6;" cx="168.47" cy="278.52" r="8.585"/>
	<circle style="fill:#87D5F6;" cx="192.47" cy="302.52" r="8.585"/>
</g>
<g>
</g>
<g>
</g>
<g>
</g>
<g>
</g>
<g>
</g>
<g>
</g>
<g>
</g>
<g>
</g>
<g>
</g>
<g>
</g>
<g>
</g>
<g>
</g>
<g>
</g>
<g>
</g>
<g>
</g>
</svg>
