<?xml version="1.0" encoding="iso-8859-1"?>
<!-- Generator: Adobe Illustrator 19.0.0, SVG Export Plug-In . SVG Version: 6.00 Build 0)  -->
<svg xmlns="http://www.w3.org/2000/svg" xmlns:xlink="http://www.w3.org/1999/xlink" version="1.1" id="Layer_1" x="0px" y="0px" viewBox="0 0 512 512" style="enable-background:new 0 0 512 512;" xml:space="preserve">
<path style="fill:#FD7555;" d="M423.235,317.433l-21.235-45.705c-0.871-1.875-3.68-1.259-3.688,0.808l-0.047,12.571l-75.218,18.738  c-3.721,0.927-6.818-2.935-5.105-6.365l50.476-101.107c3.789-7.591,1.379-16.813-5.639-21.579l-62.401-42.376l-30.967-21.03  l-62.401-42.376c-7.019-4.766-16.481-3.605-22.138,2.716l-25.352,28.327c-3.569-3.148-7.427-6.067-11.564-8.719  C106.472,64.742,50.816,75.112,21.72,114.88C-7.163,154.356-0.6,208.238,34.385,239.861L4.319,273.453  c-6.837,7.639-5.376,19.551,3.106,25.311l92.215,62.623l30.967,21.03l88.075,59.811c10.672,7.248,25.286,3.428,31.048-8.113  l20.196-40.454c2.302-4.611,5.936-8.424,10.431-10.945l128.764-72.204l11.125,9.227  C421.833,321.053,424.104,319.303,423.235,317.433z M135.433,126.964l-76.97,85.995c-1.754,1.96-4.819,2.008-6.62,0.091  c-19.576-20.832-22.841-53.145-6.111-77.78c19.37-28.523,58.195-35.944,86.718-16.574c0.801,0.544,1.582,1.105,2.347,1.68  C136.897,121.958,137.187,125.005,135.433,126.964z"/>
<path style="fill:#EF431D;" d="M422.831,319.635c-0.094,0.083-0.187,0.166-0.291,0.229c-0.104,0.073-0.218,0.125-0.333,0.177  c-0.01,0.01-0.01,0-0.01,0c-0.114,0.052-0.229,0.094-0.354,0.114c-0.125,0.031-0.25,0.042-0.374,0.042  c-0.104,0-0.208-0.01-0.312-0.031c-0.208-0.031-0.416-0.104-0.614-0.218c-0.104-0.052-0.198-0.125-0.302-0.208l-11.126-9.234  l-128.763,72.206c-1.143,0.645-2.236,1.372-3.266,2.184c-0.25,0.198-0.489,0.385-0.728,0.593c-0.479,0.395-0.926,0.811-1.362,1.237  c-0.229,0.219-0.458,0.447-0.676,0.676c-1.757,1.851-3.245,3.951-4.399,6.26l-20.194,40.45  c-5.635,11.293-19.757,15.192-30.352,8.578c-0.083-0.052-0.166-0.114-0.25-0.166l-88.521-60.103L99.64,361.386L7.427,298.765  c-8.485-5.76-9.941-17.677-3.109-25.31l4.877-5.449l212.126,144.059c8.485,5.76,16.461,0.26,21.036-8.911l17.365-37.091  c2.735-5.5,7.071-10.044,12.436-13.05l138.371-62.931l12.706,27.348c0.094,0.218,0.156,0.427,0.177,0.624  C423.496,318.677,423.247,319.239,422.831,319.635z"/>
<g>
	<path style="fill:#87D5F6;" d="M451.699,324.065c-0.838,0-1.69-0.142-2.525-0.44c-3.113-1.114-6.386-1.678-9.731-1.678   c-4.14,0-7.497-3.357-7.497-7.497c0-4.14,3.357-7.497,7.497-7.497c5.071,0,10.043,0.86,14.781,2.555   c3.898,1.394,5.928,5.685,4.533,9.584C457.662,322.156,454.775,324.065,451.699,324.065z"/>
	<path style="fill:#87D5F6;" d="M475.818,357.955c-4.105,0-7.454-3.307-7.495-7.422c-0.06-5.94-1.907-11.629-5.345-16.45   c-2.403-3.371-1.619-8.052,1.752-10.456c3.37-2.403,8.052-1.619,10.456,1.752c5.228,7.332,8.038,15.979,8.128,25.005   c0.042,4.14-3.282,7.53-7.422,7.571C475.869,357.955,475.843,357.955,475.818,357.955z"/>
	<path style="fill:#87D5F6;" d="M475.821,392.604c-4.14,0-7.497-3.357-7.497-7.497v-12.494c0-4.14,3.356-7.497,7.497-7.497   s7.497,3.357,7.497,7.497v12.494C483.317,389.248,479.961,392.604,475.821,392.604z"/>
	<path style="fill:#87D5F6;" d="M451.879,289.674c-0.472,0-0.951-0.045-1.432-0.138c-3.599-0.697-7.302-1.05-11.004-1.05   c-4.14,0-7.497-3.356-7.497-7.497s3.356-7.497,7.497-7.497c4.656,0,9.316,0.445,13.851,1.321c4.064,0.787,6.723,4.719,5.936,8.784   C458.538,287.184,455.398,289.674,451.879,289.674z"/>
	<path style="fill:#87D5F6;" d="M504.504,398.966c-4.14,0-7.497-3.357-7.497-7.497v-22.522c0-4.14,3.356-7.497,7.497-7.497   c4.14,0,7.497,3.357,7.497,7.497v22.522C512.001,395.61,508.644,398.966,504.504,398.966z M504.504,353.924   c-4.14,0-7.497-3.357-7.497-7.497v-0.376c0-6.597-1.105-13.063-3.285-19.218c-1.382-3.903,0.662-8.187,4.564-9.569   c3.904-1.38,8.187,0.663,9.569,4.564c2.75,7.767,4.144,15.916,4.144,24.222v0.376C512.001,350.567,508.644,353.924,504.504,353.924   z M489.779,312.318c-2.168,0-4.318-0.936-5.8-2.743c-4.242-5.172-9.296-9.532-15.021-12.958c-3.552-2.126-4.709-6.73-2.583-10.282   c2.127-3.552,6.73-4.709,10.282-2.583c7.211,4.316,13.575,9.806,18.914,16.315c2.626,3.202,2.159,7.924-1.042,10.55   C493.135,311.762,491.452,312.318,489.779,312.318z"/>
	<path style="fill:#87D5F6;" d="M504.504,433.998c-4.14,0-7.497-3.357-7.497-7.497v-12.494c0-4.14,3.356-7.497,7.497-7.497   c4.14,0,7.497,3.357,7.497,7.497v12.494C512.001,430.642,508.644,433.998,504.504,433.998z"/>
</g>
<g>
	<circle style="fill:#EF431D;" cx="68.5" cy="257.413" r="8.581"/>
	<circle style="fill:#EF431D;" cx="70.791" cy="291.258" r="8.581"/>
	<circle style="fill:#EF431D;" cx="319.346" cy="203.787" r="8.581"/>
</g>
<g>
</g>
<g>
</g>
<g>
</g>
<g>
</g>
<g>
</g>
<g>
</g>
<g>
</g>
<g>
</g>
<g>
</g>
<g>
</g>
<g>
</g>
<g>
</g>
<g>
</g>
<g>
</g>
<g>
</g>
</svg>
