<?xml version="1.0" encoding="iso-8859-1"?>
<!-- Generator: Adobe Illustrator 19.0.0, SVG Export Plug-In . SVG Version: 6.00 Build 0)  -->
<svg xmlns="http://www.w3.org/2000/svg" xmlns:xlink="http://www.w3.org/1999/xlink" version="1.1" id="Layer_1" x="0px" y="0px" viewBox="0 0 512 512" style="enable-background:new 0 0 512 512;" xml:space="preserve">
<circle style="fill:#43A838;" cx="249.95" cy="169.33" r="169.33"/>
<path style="fill:#338727;" d="M419.279,169.327c0,93.523-75.804,169.327-169.327,169.327c-9.525,0-18.868-0.786-27.969-2.313  c80.219-13.32,141.358-83.016,141.358-167.014S302.201,15.633,221.982,2.313C231.083,0.786,240.427,0,249.951,0  C343.475,0,419.279,75.804,419.279,169.327z"/>
<circle style="fill:#43A838;" cx="362.61" cy="336.87" r="68.77"/>
<g>
	<path style="fill:#338727;" d="M431.376,336.871c0,37.983-30.787,68.77-68.77,68.77c-3.868,0-7.663-0.319-11.359-0.939   c32.58-5.41,57.411-33.716,57.411-67.831s-24.831-62.421-57.411-67.831c3.696-0.62,7.491-0.939,11.359-0.939   C400.589,268.101,431.376,298.888,431.376,336.871z"/>
	<circle style="fill:#338727;" cx="293.06" cy="71" r="8.585"/>
	<circle style="fill:#338727;" cx="153.41" cy="257.63" r="8.585"/>
	<circle style="fill:#338727;" cx="177.41" cy="281.63" r="8.585"/>
	<circle style="fill:#338727;" cx="141.41" cy="115.58" r="8.585"/>
	<circle style="fill:#338727;" cx="186" cy="223.88" r="8.585"/>
</g>
<g>
	<path style="fill:#7F443B;" d="M250.076,512c-4.143,0-7.5-3.357-7.5-7.5V186.861c0-4.143,3.357-7.5,7.5-7.5s7.5,3.357,7.5,7.5   V504.5C257.576,508.643,254.219,512,250.076,512z"/>
	<path style="fill:#7F443B;" d="M251.073,298.489c-1.741,0-3.49-0.603-4.909-1.832c-3.13-2.713-3.469-7.449-0.756-10.58   l52.746-60.865c2.714-3.13,7.45-3.468,10.58-0.756c3.13,2.713,3.469,7.449,0.756,10.58l-52.746,60.865   C255.261,297.612,253.173,298.489,251.073,298.489z"/>
	<path style="fill:#7F443B;" d="M250.073,470.649c-1.741,0-3.49-0.603-4.909-1.832c-3.13-2.713-3.469-7.449-0.756-10.58   l69.226-79.881c2.713-3.13,7.45-3.469,10.58-0.756c3.13,2.713,3.469,7.449,0.756,10.58l-69.226,79.881   C254.261,469.772,252.173,470.649,250.073,470.649z"/>
</g>
<g>
</g>
<g>
</g>
<g>
</g>
<g>
</g>
<g>
</g>
<g>
</g>
<g>
</g>
<g>
</g>
<g>
</g>
<g>
</g>
<g>
</g>
<g>
</g>
<g>
</g>
<g>
</g>
<g>
</g>
</svg>
