<?xml version="1.0" encoding="iso-8859-1"?>
<!-- Generator: Adobe Illustrator 19.0.0, SVG Export Plug-In . SVG Version: 6.00 Build 0)  -->
<svg xmlns="http://www.w3.org/2000/svg" xmlns:xlink="http://www.w3.org/1999/xlink" version="1.1" id="Layer_1" x="0px" y="0px" viewBox="0 0 512 512" style="enable-background:new 0 0 512 512;" xml:space="preserve">
<path style="fill:#975D50;" d="M416.099,413.502c-19.326,0-37.303,5.737-52.361,15.572c-18.634-49.003-66.015-83.838-121.556-83.838  c-51.313,0-95.668,29.731-116.82,72.898c-9.286-2.996-19.182-4.632-29.465-4.632C42.935,413.502,0,456.437,0,509.4h511.997  C511.997,456.437,469.062,413.502,416.099,413.502z"/>
<g>
	<path style="fill:#7F443B;" d="M512,509.403h-18.966c-11.87-39.486-48.496-68.254-91.849-68.254c-1.091,0-2.181,0.02-3.271,0.051   c-1.029-0.031-2.057-0.051-3.095-0.051c-16.171,0-31.402,4.02-44.767,11.09c-1.324,0.7-2.975,0.128-3.574-1.245   c-20.035-45.971-65.861-78.11-119.209-78.11c-1.06,0-2.109,0.01-3.157,0.041c-1.07-0.031-2.139-0.041-3.21-0.041   c-35.691,0-68.018,14.379-91.51,37.676c22.443-39.023,64.531-65.323,112.79-65.323c55.541,0,102.926,34.836,121.553,83.836   c15.058-9.833,33.036-15.572,52.364-15.572C469.058,413.501,512,456.432,512,509.403z"/>
	<circle style="fill:#7F443B;" cx="108.571" cy="436.945" r="8.589"/>
	<circle style="fill:#7F443B;" cx="316.698" cy="459.566" r="8.589"/>
	<circle style="fill:#7F443B;" cx="290.286" cy="431.512" r="8.589"/>
</g>
<path style="fill:#B0E046;" d="M252.572,3.24c-2.664,1.466-7.261,4.168-12.762,8.128c-49.635,35.736-49.635,109.964,0,145.699  c8.773,6.317,15.248,9.434,15.248,9.434s6.475-3.117,15.248-9.434c49.635-35.736,49.635-109.964,0-145.699  c-5.501-3.96-10.098-6.663-12.762-8.128C255.994,2.386,254.124,2.386,252.572,3.24z"/>
<path style="fill:#A4C93D;" d="M270.313,157.07c-8.773,6.315-15.253,9.431-15.253,9.431s-4.371-2.109-10.8-6.356  c1.399-0.925,2.89-1.944,4.454-3.075c49.627-35.742,49.627-109.962,0-145.704c-1.564-1.132-3.054-2.149-4.454-3.075  c3.51-2.319,6.406-4,8.312-5.049c1.543-0.848,3.408-0.862,4.95-0.015c2.662,1.462,7.272,4.168,12.79,8.14  C319.94,47.107,319.94,121.327,270.313,157.07z"/>
<path style="fill:#43A838;" d="M396.029,148.343c-2.978-0.614-8.229-1.542-14.984-2.099c-60.954-5.03-109.132,51.439-94.566,110.84  c2.574,10.5,5.477,17.074,5.477,17.074s6.949,1.831,17.723,2.72c60.954,5.03,109.132-51.439,94.566-110.84  c-1.614-6.583-3.358-11.622-4.433-14.467C399.185,149.913,397.763,148.7,396.029,148.343z"/>
<path style="fill:#338727;" d="M309.681,276.882c-10.773-0.89-17.725-2.725-17.725-2.725s-1.957-4.441-4.09-11.846  c1.665,0.203,3.461,0.397,5.384,0.551c60.953,5.02,109.124-51.443,94.569-110.844c-0.455-1.875-0.928-3.618-1.392-5.23  c4.175,0.513,7.469,1.115,9.6,1.554c1.724,0.355,3.152,1.556,3.776,3.201c1.077,2.84,2.827,7.892,4.447,14.494  C418.806,225.439,370.634,281.902,309.681,276.882z"/>
<path style="fill:#43A838;" d="M115.73,148.343c2.978-0.614,8.229-1.542,14.984-2.099c60.954-5.03,109.132,51.439,94.566,110.84  c-2.574,10.5-5.477,17.074-5.477,17.074s-6.949,1.831-17.723,2.72c-60.954,5.03-109.132-51.439-94.566-110.84  c1.614-6.583,3.358-11.622,4.433-14.467C112.574,149.913,113.995,148.7,115.73,148.343z"/>
<g>
	<path style="fill:#338727;" d="M202.078,276.882c10.773-0.89,17.725-2.725,17.725-2.725s1.957-4.441,4.09-11.846   c-1.665,0.203-3.461,0.397-5.385,0.551c-60.953,5.02-109.124-51.443-94.569-110.844c0.455-1.875,0.928-3.618,1.392-5.23   c-4.175,0.513-7.47,1.115-9.601,1.554c-1.724,0.355-3.152,1.556-3.776,3.201c-1.076,2.84-2.827,7.892-4.447,14.494   C92.954,225.439,141.125,281.902,202.078,276.882z"/>
	<path style="fill:#338727;" d="M257.113,320.058c-1.725,0-3.459-0.591-4.872-1.8c-3.149-2.692-3.521-7.428-0.827-10.579   l54.513-63.77c2.693-3.149,7.429-3.521,10.579-0.827c3.149,2.692,3.521,7.428,0.827,10.579l-54.513,63.77   C261.336,319.167,259.231,320.058,257.113,320.058z"/>
	<path style="fill:#338727;" d="M254.108,320.058c-2.118,0-4.223-0.891-5.707-2.627l-54.513-63.77   c-2.693-3.15-2.322-7.887,0.827-10.579c3.15-2.693,7.887-2.322,10.579,0.827l54.513,63.77c2.693,3.15,2.322,7.887-0.827,10.579   C257.567,319.466,255.833,320.058,254.108,320.058z"/>
	<path style="fill:#338727;" d="M255.06,372.897c-4.144,0-7.504-3.36-7.504-7.504V108.902c0-4.144,3.36-7.504,7.504-7.504   s7.504,3.36,7.504,7.504v256.491C262.563,369.537,259.203,372.897,255.06,372.897z"/>
</g>
<g>
</g>
<g>
</g>
<g>
</g>
<g>
</g>
<g>
</g>
<g>
</g>
<g>
</g>
<g>
</g>
<g>
</g>
<g>
</g>
<g>
</g>
<g>
</g>
<g>
</g>
<g>
</g>
<g>
</g>
</svg>
