<?xml version="1.0" encoding="iso-8859-1"?>
<!-- Generator: Adobe Illustrator 19.0.0, SVG Export Plug-In . SVG Version: 6.00 Build 0)  -->
<svg version="1.1" id="Layer_1" xmlns="http://www.w3.org/2000/svg" xmlns:xlink="http://www.w3.org/1999/xlink" x="0px" y="0px"
	 viewBox="0 0 512 512" style="enable-background:new 0 0 512 512;" xml:space="preserve">
<path style="fill:#C9E9F4;" d="M478.153,230.104c0,122.761-99.458,222.27-222.153,222.27c-122.697,0-222.153-99.508-222.153-222.27
	C33.847,107.344,133.303,7.837,256,7.837C378.696,7.837,478.153,107.344,478.153,230.104z"/>
<g>
	<ellipse style="fill:#FFFFFF;" cx="108.826" cy="187.559" rx="12.525" ry="12.539"/>
	<ellipse style="fill:#FFFFFF;" cx="361.42" cy="260.702" rx="12.525" ry="12.539"/>
	<ellipse style="fill:#FFFFFF;" cx="140.142" cy="256.522" rx="12.525" ry="12.539"/>
	<ellipse style="fill:#FFFFFF;" cx="415.692" cy="225.176" rx="12.525" ry="12.539"/>
	<ellipse style="fill:#FFFFFF;" cx="386.476" cy="315.037" rx="12.525" ry="12.539"/>
	<ellipse style="fill:#FFFFFF;" cx="100.477" cy="307.722" rx="12.525" ry="12.539"/>
	<path style="fill:#FFFFFF;" d="M156.392,365.847c0,20.436,6.153,39.434,16.701,55.247h165.815
		c10.547-15.812,16.701-34.811,16.701-55.247c0-36.856-20.049-68.963-49.784-86.212c16.895-14.22,27.651-35.5,27.651-59.322
		c0-42.813-34.684-77.517-77.476-77.517c-42.794,0-77.478,34.704-77.478,77.517c0,23.823,10.755,45.102,27.654,59.322
		C176.438,296.884,156.392,328.991,156.392,365.847z"/>
</g>
<path style="opacity:0.1;fill:#414042;enable-background:new    ;" d="M156.392,365.847c0,20.436,6.153,39.434,16.701,55.247h32.823
	c-10.552-15.814-16.717-34.806-16.717-55.247c0-36.856,20.048-68.963,49.785-86.212c-16.898-14.22-27.655-35.5-27.655-59.322
	c0-37.18,26.164-68.229,61.074-75.759c-5.289-1.141-10.774-1.758-16.403-1.758c-42.794,0-77.478,34.704-77.478,77.517
	c0,23.823,10.755,45.102,27.654,59.322C176.438,296.884,156.392,328.991,156.392,365.847z"/>
<g style="opacity:0.1;">
	<path style="fill:#414042;" d="M78.897,230.104c0-115.151,87.513-209.841,199.629-221.137C271.119,8.221,263.604,7.837,256,7.837
		c-122.697,0-222.153,99.508-222.153,222.268c0,122.761,99.457,222.27,222.153,222.27c7.604,0,15.119-0.386,22.526-1.131
		C166.41,439.949,78.897,345.256,78.897,230.104z"/>
</g>
<g>
	<path style="fill:#636052;" d="M234.516,217.676c0,4.53-3.655,8.203-8.165,8.203l0,0c-4.509,0-8.164-3.674-8.164-8.203l0,0
		c0-4.53,3.655-8.202,8.164-8.202l0,0C230.861,209.474,234.516,213.147,234.516,217.676L234.516,217.676z"/>
	<path style="fill:#636052;" d="M293.812,217.676c0,4.53-3.654,8.203-8.162,8.203l0,0c-4.51,0-8.165-3.674-8.165-8.203l0,0
		c0-4.53,3.655-8.202,8.165-8.202l0,0C290.158,209.474,293.812,213.147,293.812,217.676L293.812,217.676z"/>
</g>
<path style="fill:#EF6B3A;" d="M271.532,236.065c0,7.835-6.323,14.188-14.12,14.188l0,0c-7.8,0-14.123-6.353-14.123-14.188l0,0
	c0-7.837,6.323-14.189,14.123-14.189l0,0C265.21,221.877,271.532,228.229,271.532,236.065L271.532,236.065z"/>
<path style="fill:#F0D355;" d="M413.358,433.249c0,15.329-12.429,27.749-27.766,27.749H126.409
	c-15.337,0-27.766-12.421-27.766-27.749l0,0c0-15.328,12.43-27.747,27.766-27.747h259.184
	C400.929,405.502,413.358,417.922,413.358,433.249L413.358,433.249z"/>
<g style="opacity:0.1;">
	<path style="fill:#414042;" d="M143.693,433.249c0-15.328,12.43-27.747,27.767-27.747h-45.052
		c-15.337,0-27.766,12.42-27.766,27.747c0,15.329,12.43,27.749,27.766,27.749h45.052
		C156.122,460.999,143.693,448.578,143.693,433.249z"/>
</g>
<path style="fill:#ED5D51;" d="M441.13,495.941c0,4.545-3.68,8.222-8.23,8.222H79.1c-4.548,0-8.229-3.678-8.229-8.222v-47.275
	c0-4.543,3.68-8.22,8.229-8.22h353.8c4.549,0,8.23,3.678,8.23,8.22V495.941z"/>
<g style="opacity:0.1;">
	<path style="fill:#414042;" d="M115.922,495.941v-47.275c0-4.543,3.68-8.22,8.23-8.22H79.1c-4.548,0-8.229,3.678-8.229,8.22v47.275
		c0,4.545,3.68,8.222,8.229,8.222h45.052C119.603,504.163,115.922,500.485,115.922,495.941z"/>
</g>
<path style="fill:#FFFFFF;" d="M426.945,163.009c-4.908,0-9.61-2.778-11.833-7.515c-17.713-37.75-48.345-68.071-86.252-85.381
	c-6.561-2.996-9.452-10.744-6.456-17.307c2.997-6.562,10.744-9.452,17.308-6.456c43.532,19.877,78.708,54.698,99.05,98.045
	c3.065,6.531,0.254,14.308-6.276,17.374C430.691,162.61,428.803,163.009,426.945,163.009z"/>
<path style="fill:#636052;" d="M432.9,432.609h-11.722c-0.207-11.661-6.057-21.965-14.925-28.308
	c4.239-3.665,8.376-7.483,12.378-11.486c43.436-43.461,67.359-101.245,67.359-162.71c0-61.464-23.923-119.249-67.359-162.708
	C375.191,23.934,317.436,0,256,0S136.808,23.934,93.369,67.396C49.933,110.855,26.01,168.639,26.01,230.104
	s23.922,119.25,67.359,162.71c4.002,4.003,8.139,7.82,12.378,11.486c-8.868,6.344-14.718,16.647-14.925,28.308H79.1
	c-8.86,0-16.065,7.204-16.065,16.057v47.275C63.034,504.796,70.24,512,79.1,512h353.8c8.86,0,16.066-7.205,16.066-16.059v-47.275
	C448.966,439.811,441.759,432.609,432.9,432.609z M41.684,230.104c0-118.238,96.141-214.431,214.316-214.431
	s214.316,96.193,214.316,214.431c0,67.855-31.67,128.441-80.988,167.759c-1.229-0.129-2.474-0.199-3.737-0.199h-26.959
	c3.123-10.059,4.813-20.744,4.813-31.818c0-34.702-17.021-67.321-45.025-87.392c14.655-15.724,22.892-36.405,22.892-58.143
	c0-47.063-38.27-85.354-85.313-85.354s-85.315,38.29-85.315,85.354c0,21.739,8.238,42.421,22.894,58.143
	c-28.001,20.07-45.026,52.691-45.026,87.392c0,11.075,1.69,21.759,4.814,31.818h-26.962c-1.262,0-2.508,0.069-3.737,0.199
	C73.352,358.545,41.684,297.958,41.684,230.104z M164.229,365.847c0-32.581,17.58-63.019,45.881-79.434l9.645-5.594l-8.534-7.181
	c-15.8-13.295-24.862-32.731-24.862-53.325c0-38.421,31.241-69.68,69.641-69.68c38.399,0,69.639,31.259,69.639,69.68
	c0,20.592-9.061,40.029-24.86,53.326l-8.531,7.18l9.644,5.593c28.3,16.419,45.879,46.855,45.879,79.435
	c0,11.181-2.017,21.9-5.691,31.818H169.919C166.245,387.747,164.229,377.028,164.229,365.847z M385.591,413.339
	c10.773,0,19.555,8.589,19.897,19.269H106.512c0.342-10.681,9.123-19.269,19.897-19.269H385.591z M433.293,495.941
	c0,0.216-0.172,0.386-0.393,0.386H79.1c-0.22,0-0.392-0.169-0.392-0.386v-47.275c0-0.215,0.171-0.383,0.392-0.383h353.8
	c0.22,0,0.393,0.168,0.393,0.383V495.941z"/>
<g>
</g>
<g>
</g>
<g>
</g>
<g>
</g>
<g>
</g>
<g>
</g>
<g>
</g>
<g>
</g>
<g>
</g>
<g>
</g>
<g>
</g>
<g>
</g>
<g>
</g>
<g>
</g>
<g>
</g>
</svg>
