<?xml version="1.0" encoding="iso-8859-1"?>
<!-- Generator: Adobe Illustrator 19.0.0, SVG Export Plug-In . SVG Version: 6.00 Build 0)  -->
<svg xmlns="http://www.w3.org/2000/svg" xmlns:xlink="http://www.w3.org/1999/xlink" version="1.1" id="Layer_1" x="0px" y="0px" viewBox="0 0 512 512" style="enable-background:new 0 0 512 512;" xml:space="preserve">
<g>
	<path style="fill:#F4A240;" d="M256,78.785c-4.157,0-7.528-3.37-7.528-7.528V7.528C248.473,3.37,251.843,0,256,0   c4.157,0,7.528,3.37,7.528,7.528v63.729C263.528,75.414,260.158,78.785,256,78.785z"/>
	<path style="fill:#F4A240;" d="M256,512c-4.157,0-7.528-3.37-7.528-7.528v-63.729c0-4.157,3.37-7.528,7.528-7.528   c4.157,0,7.528,3.37,7.528,7.528v63.729C263.528,508.63,260.158,512,256,512z"/>
	<path style="fill:#F4A240;" d="M163.636,103.537c-2.602,0-5.132-1.35-6.526-3.765l-31.865-55.191   c-2.079-3.6-0.845-8.204,2.755-10.283c3.601-2.08,8.204-0.846,10.283,2.755l31.865,55.191c2.079,3.6,0.845,8.204-2.755,10.283   C166.207,103.212,164.912,103.537,163.636,103.537z"/>
	<path style="fill:#F4A240;" d="M380.243,478.713c-2.602,0-5.132-1.35-6.526-3.765l-31.865-55.191   c-2.079-3.6-0.845-8.204,2.755-10.283c3.6-2.08,8.204-0.846,10.283,2.755l31.865,55.191c2.079,3.6,0.845,8.204-2.755,10.283   C382.814,478.388,381.521,478.713,380.243,478.713z"/>
	<path style="fill:#F4A240;" d="M96,171.157c-1.277,0-2.571-0.325-3.757-1.01l-55.191-31.865c-3.6-2.079-4.834-6.683-2.755-10.283   c2.078-3.6,6.682-4.834,10.283-2.755l55.191,31.865c3.6,2.079,4.834,6.683,2.755,10.283C101.132,169.807,98.602,171.157,96,171.157   z"/>
	<path style="fill:#F4A240;" d="M471.176,387.766c-1.277,0-2.572-0.325-3.757-1.01l-55.191-31.865   c-3.6-2.079-4.834-6.683-2.755-10.283c2.078-3.6,6.682-4.835,10.283-2.755l55.191,31.865c3.6,2.079,4.834,6.683,2.755,10.283   C476.308,386.415,473.778,387.766,471.176,387.766z"/>
	<path style="fill:#F4A240;" d="M71.257,263.528H7.528C3.37,263.528,0,260.158,0,256c0-4.157,3.37-7.528,7.528-7.528h63.729   c4.157,0,7.528,3.37,7.528,7.528C78.785,260.158,75.414,263.528,71.257,263.528z"/>
	<path style="fill:#F4A240;" d="M504.472,263.528h-63.729c-4.157,0-7.528-3.37-7.528-7.528c0-4.157,3.37-7.528,7.528-7.528h63.729   c4.157,0,7.528,3.37,7.528,7.528C512,260.158,508.63,263.528,504.472,263.528z"/>
	<path style="fill:#F4A240;" d="M40.824,387.766c-2.602,0-5.132-1.35-6.526-3.765c-2.079-3.6-0.845-8.204,2.755-10.283   l55.191-31.865c3.6-2.079,8.204-0.845,10.283,2.755s0.845,8.204-2.755,10.283L44.58,386.756   C43.395,387.44,42.1,387.766,40.824,387.766z"/>
	<path style="fill:#F4A240;" d="M416,171.157c-2.602,0-5.132-1.35-6.526-3.765c-2.079-3.6-0.845-8.204,2.755-10.283l55.191-31.865   c3.6-2.079,8.204-0.846,10.283,2.755c2.079,3.6,0.845,8.204-2.755,10.283l-55.191,31.865   C418.571,170.832,417.277,171.157,416,171.157z"/>
	<path style="fill:#F4A240;" d="M131.757,478.713c-1.277,0-2.571-0.325-3.757-1.01c-3.6-2.079-4.834-6.683-2.755-10.283   l31.865-55.191c2.078-3.6,6.682-4.835,10.283-2.755c3.6,2.079,4.834,6.683,2.755,10.283l-31.865,55.191   C136.889,477.362,134.359,478.713,131.757,478.713z"/>
	<path style="fill:#F4A240;" d="M348.365,103.537c-1.277,0-2.572-0.325-3.757-1.01c-3.6-2.079-4.834-6.683-2.755-10.283   l31.865-55.191c2.079-3.6,6.682-4.835,10.283-2.755c3.6,2.079,4.834,6.683,2.755,10.283l-31.865,55.191   C353.496,102.186,350.966,103.537,348.365,103.537z"/>
</g>
<circle style="fill:#F8C442;" cx="256.005" cy="256.005" r="125.102"/>
<g>
	<path style="fill:#F4A240;" d="M381.105,256c0,69.098-56.007,125.106-125.106,125.106c-7.037,0-13.94-0.581-20.664-1.709   c59.269-9.841,104.44-61.335,104.44-123.396s-45.172-113.555-104.44-123.396c6.725-1.128,13.627-1.709,20.664-1.709   C325.098,130.895,381.105,186.902,381.105,256z"/>
	<circle style="fill:#F4A240;" cx="186.96" cy="309.512" r="8.617"/>
	<circle style="fill:#F4A240;" cx="211.049" cy="333.601" r="8.617"/>
	<circle style="fill:#F4A240;" cx="299.475" cy="192.872" r="8.617"/>
</g>
<g>
</g>
<g>
</g>
<g>
</g>
<g>
</g>
<g>
</g>
<g>
</g>
<g>
</g>
<g>
</g>
<g>
</g>
<g>
</g>
<g>
</g>
<g>
</g>
<g>
</g>
<g>
</g>
<g>
</g>
</svg>
