<?xml version="1.0" encoding="iso-8859-1"?>
<!-- Generator: Adobe Illustrator 16.0.0, SVG Export Plug-In . SVG Version: 6.00 Build 0)  -->
<!DOCTYPE svg PUBLIC "-//W3C//DTD SVG 1.1//EN" "http://www.w3.org/Graphics/SVG/1.1/DTD/svg11.dtd">
<svg version="1.1" id="Layer_1" xmlns="http://www.w3.org/2000/svg" xmlns:xlink="http://www.w3.org/1999/xlink" x="0px" y="0px"
	 width="31.769px" height="24.898px" viewBox="0 0 31.769 24.898" style="enable-background:new 0 0 31.769 24.898;"
	 xml:space="preserve">
<g>
	<path d="M28.554,6.02c-0.873-2.724-3.425-4.697-6.438-4.697c-3.455,0-6.3,2.593-6.707,5.939c-0.001,0-0.002,0.002-0.002,0.002
		C13.769,7.028,12.233,4.469,10.659,0C7.147,4.176,7.361,8.804,8.418,10.538C6.181,10.784,1.878,9.476,0,8.452
		c3.273,7.317,7.955,10.891,12.538,11.872c1.554,0.825,3.321,1.302,5.204,1.302c0.199,0,0.394-0.02,0.591-0.029L17.4,23.18
		l-1.971,0.645l0.159,0.487l1.91-0.625l0.899,0.923l0.366-0.357l-0.874-0.897l1.059-1.796c0.729-0.079,1.436-0.226,2.115-0.438
		l2.021,2.583l-1.713,0.635l0.178,0.48l1.943-0.721l1.789,0.8l0.209-0.467l-1.826-0.818l-2.095-2.677
		c4.169-1.529,7.174-5.469,7.302-10.136c0.002-0.076,2.897-0.188,2.897-0.188L28.847,8.55l2.859-2.438L28.554,6.02z M24.757,8.483
		c-1.024,0-1.855-0.831-1.855-1.857c0-1.025,0.831-1.856,1.855-1.856c1.025,0,1.856,0.831,1.856,1.856
		C26.613,7.652,25.782,8.483,24.757,8.483z"/>
	<path d="M24.885,5.698L24.885,5.698c0.038,0.073,0.066,0.152,0.066,0.24c0,0.284-0.23,0.515-0.514,0.515
		c-0.165,0-0.306-0.083-0.399-0.203c-0.051,0.115-0.081,0.242-0.081,0.376c0,0.513,0.415,0.928,0.928,0.928s0.928-0.415,0.928-0.928
		C25.813,6.114,25.397,5.698,24.885,5.698z"/>
</g>
<g>
</g>
<g>
</g>
<g>
</g>
<g>
</g>
<g>
</g>
<g>
</g>
<g>
</g>
<g>
</g>
<g>
</g>
<g>
</g>
<g>
</g>
<g>
</g>
<g>
</g>
<g>
</g>
<g>
</g>
</svg>
