<?xml version="1.0" encoding="iso-8859-1"?>
<!-- Generator: Adobe Illustrator 16.0.0, SVG Export Plug-In . SVG Version: 6.00 Build 0)  -->
<!DOCTYPE svg PUBLIC "-//W3C//DTD SVG 1.1//EN" "http://www.w3.org/Graphics/SVG/1.1/DTD/svg11.dtd">
<svg version="1.1" id="Layer_1" xmlns="http://www.w3.org/2000/svg" xmlns:xlink="http://www.w3.org/1999/xlink" x="0px" y="0px"
	 width="29.033px" height="32px" viewBox="0 0 29.033 32" style="enable-background:new 0 0 29.033 32;" xml:space="preserve">
<path d="M29.033,12.645L15.472,0L0,12.318l1.646,2.018l2.245-1.808L7.689,32h13.856l4.193-19.11l1.709,1.774L29.033,12.645z
	 M15.13,26.066c-0.952,0-1.725-0.772-1.725-1.724c0-0.953,0.772-1.724,1.725-1.724s1.724,0.771,1.724,1.724
	C16.854,25.294,16.082,26.066,15.13,26.066z M14.835,20.427c-2.239,0-4.054-1.815-4.054-4.054c0-2.239,1.814-4.055,4.054-4.055
	s4.055,1.815,4.055,4.055C18.89,18.612,17.074,20.427,14.835,20.427z"/>
<g>
</g>
<g>
</g>
<g>
</g>
<g>
</g>
<g>
</g>
<g>
</g>
<g>
</g>
<g>
</g>
<g>
</g>
<g>
</g>
<g>
</g>
<g>
</g>
<g>
</g>
<g>
</g>
<g>
</g>
</svg>
