<?xml version="1.0" encoding="iso-8859-1"?>
<!-- Generator: Adobe Illustrator 16.0.0, SVG Export Plug-In . SVG Version: 6.00 Build 0)  -->
<!DOCTYPE svg PUBLIC "-//W3C//DTD SVG 1.1//EN" "http://www.w3.org/Graphics/SVG/1.1/DTD/svg11.dtd">
<svg version="1.1" id="Layer_1" xmlns="http://www.w3.org/2000/svg" xmlns:xlink="http://www.w3.org/1999/xlink" x="0px" y="0px"
	 width="32px" height="25.228px" viewBox="0 0 32 25.228" style="enable-background:new 0 0 32 25.228;" xml:space="preserve">
<g>
	<path d="M30.843,10.708L32,9.233L22.098,0L10.8,8.995l1.202,1.474l1.64-1.32l2.773,14.218h-6.331l-0.276-0.124l-0.868-1.109
		c1.755-0.645,3.013-2.32,3.027-4.295c0.021-0.067,0.042-0.132,0.058-0.191c0.032-0.109,1.237-1.31,1.237-1.31l-1.429-0.384
		c-0.361-1.129-1.419-1.947-2.668-1.947c-1.432,0-2.61,1.074-2.779,2.46c-0.001,0-0.001,0.001-0.001,0.001
		c-0.679-0.098-1.314-1.159-1.968-3.01c-1.455,1.73-1.366,3.648-0.929,4.367C2.562,17.927,0.778,17.384,0,16.96
		c1.356,3.033,3.297,4.513,5.196,4.92c0.644,0.342,1.376,0.539,2.156,0.539c0.083,0,0.163-0.007,0.245-0.012l-0.387,0.656
		L6.395,23.33l0.013,0.037H0.761v1.86h27.633v-1.86h-1.861l3.063-13.955L30.843,10.708z M10.26,15.434
		c0.425,0,0.77,0.344,0.77,0.769c0,0.425-0.345,0.77-0.77,0.77s-0.77-0.344-0.77-0.77C9.49,15.778,9.835,15.434,10.26,15.434z
		 M7.853,22.391c0.302-0.033,0.596-0.093,0.877-0.182l0.837,1.071l-0.232,0.086H7.64l-0.226-0.231L7.853,22.391z M7.252,23.273
		l0.092,0.094H6.965L7.252,23.273z M21.633,14.917c-1.636,0-2.961-1.326-2.961-2.961c0-1.635,1.325-2.96,2.961-2.96
		c1.635,0,2.96,1.326,2.96,2.96C24.593,13.591,23.268,14.917,21.633,14.917z M23.106,17.775c0,0.695-0.563,1.259-1.259,1.259
		s-1.259-0.563-1.259-1.259s0.563-1.259,1.259-1.259S23.106,17.08,23.106,17.775z"/>
	<path d="M10.313,16.587c0.213,0,0.385-0.171,0.385-0.384c0-0.212-0.172-0.384-0.385-0.384l0,0c0.017,0.03,0.028,0.063,0.028,0.099
		c0,0.118-0.096,0.213-0.214,0.213c-0.068,0-0.126-0.034-0.165-0.084c-0.021,0.048-0.033,0.1-0.033,0.156
		C9.929,16.416,10.101,16.587,10.313,16.587z"/>
</g>
<g>
</g>
<g>
</g>
<g>
</g>
<g>
</g>
<g>
</g>
<g>
</g>
<g>
</g>
<g>
</g>
<g>
</g>
<g>
</g>
<g>
</g>
<g>
</g>
<g>
</g>
<g>
</g>
<g>
</g>
</svg>
