<?xml version="1.0" encoding="iso-8859-1"?>
<!-- Generator: Adobe Illustrator 19.0.0, SVG Export Plug-In . SVG Version: 6.00 Build 0)  -->
<svg xmlns="http://www.w3.org/2000/svg" xmlns:xlink="http://www.w3.org/1999/xlink" version="1.1" id="Layer_1" x="0px" y="0px" viewBox="0 0 512.005 512.005" style="enable-background:new 0 0 512.005 512.005;" xml:space="preserve">
<path style="fill:#975D50;" d="M253.364,36.296l-108.857,97.497c-0.837,0.75-1.316,1.821-1.316,2.945v142.103  c0,2.183,1.77,3.953,3.953,3.953h108.858h108.857c2.183,0,3.953-1.77,3.953-3.953V136.738c0-1.124-0.478-2.195-1.316-2.945  L258.64,36.296C257.138,34.952,254.866,34.952,253.364,36.296z"/>
<path style="fill:#7F443B;" d="M368.814,136.739v37.822c0-1.117-110.171-100.439-110.171-100.439c-1.503-1.341-3.779-1.341-5.282,0  c0,0-110.171,99.321-110.171,100.439v-37.822c0-1.128,0.477-2.194,1.321-2.946L253.361,36.3c1.503-1.351,3.779-1.351,5.282,0  l108.85,97.493C368.337,134.545,368.814,135.611,368.814,136.739z"/>
<rect x="141.406" y="382.022" transform="matrix(-6.000000e-005 -1 1 -6.000000e-005 -141.3723 653.4333)" style="fill:#FD7555;" width="229.21" height="30.753"/>
<rect x="240.632" y="282.8" style="fill:#EF431D;" width="30.754" height="37.86"/>
<path style="fill:#F8C442;" d="M248.037,3.103L111.729,128.279c-3.501,3.215-1.226,9.054,3.527,9.054h24.297  c1.291,0,2.536-0.479,3.494-1.344l109.462-98.814c1.985-1.792,5.003-1.792,6.987,0l109.462,98.814  c0.958,0.865,2.203,1.344,3.494,1.344h24.297c4.753,0,7.027-5.839,3.527-9.054L263.967,3.103  C259.463-1.034,252.541-1.034,248.037,3.103z"/>
<ellipse style="fill:#B9E5FA;" cx="256.002" cy="194.74" rx="41.33" ry="41.631"/>
<path style="fill:#87D5F6;" d="M297.335,194.732c0,3.603-0.455,7.098-1.312,10.439c-4.596-17.94-20.77-31.196-40.021-31.196  s-35.425,13.256-40.021,31.196c-0.856-3.341-1.312-6.835-1.312-10.439c0-22.985,18.504-41.624,41.333-41.624  S297.335,171.747,297.335,194.732z"/>
<g>
	<circle style="fill:#7F443B;" cx="172.192" cy="233.8" r="8.721"/>
	<circle style="fill:#7F443B;" cx="196.572" cy="258.18" r="8.721"/>
	<circle style="fill:#7F443B;" cx="288.612" cy="119.95" r="8.721"/>
</g>
<g>
</g>
<g>
</g>
<g>
</g>
<g>
</g>
<g>
</g>
<g>
</g>
<g>
</g>
<g>
</g>
<g>
</g>
<g>
</g>
<g>
</g>
<g>
</g>
<g>
</g>
<g>
</g>
<g>
</g>
</svg>
